<svg id="Layer_1" data-name="Layer 1" xmlns="http://www.w3.org/2000/svg" viewBox="0 0 451.91 58.24"><defs><style>.cls-1{fill:#231f20;}</style></defs><g id="Logo1"><path class="cls-1" d="M60.21,128.91H35.58v24.47H24.05V95.88H35.58v23.64H60.21V95.88H71.74v57.5H60.21Z" transform="translate(-24.05 -95.88)"/><path class="cls-1" d="M103.37,154.12c-13.18,0-23.15-9.22-23.15-23.56S90.52,107,103.7,107s23.48,9.14,23.48,23.56S116.64,154.12,103.37,154.12Zm0-10.05c6.1,0,11.95-4.45,11.95-13.51s-5.68-13.51-11.78-13.51-11.62,4.37-11.62,13.51S97.2,144.07,103.37,144.07Z" transform="translate(-24.05 -95.88)"/><path class="cls-1" d="M137.47,117.21H132v-9.47h5.43V96.45h11.62v11.29h10.22v9.47H149.09v22.08c0,3.05,1.24,4.37,4.86,4.37h5.36v9.72h-7.25c-8.74,0-14.59-3.71-14.59-14.17Z" transform="translate(-24.05 -95.88)"/><path class="cls-1" d="M251.24,153.38h-24.8V95.88h23.72c12,0,18.7,6.26,18.7,14.83,0,7-4.2,11.37-9.8,13.18,6.51,1.15,11.12,7.17,11.12,13.92C270.18,147,263.18,153.38,251.24,153.38Zm-2.72-48.19H238V119.6h10.55c5.43,0,8.56-2.47,8.56-7.16S254,105.19,248.52,105.19Zm.82,23.31H238V144h11.62c5.6,0,8.89-2.72,8.89-7.58S254.94,128.5,249.34,128.5Z" transform="translate(-24.05 -95.88)"/><path class="cls-1" d="M299.34,154.12c-13.26,0-22.9-9.22-22.9-23.56S285.83,107,299.34,107c13.18,0,22.49,9,22.49,22.57a26.59,26.59,0,0,1-.33,4.45H288.14c.57,6.76,5.19,10.55,10.95,10.55,5,0,7.67-2.48,9.15-5.52h12.44C318.21,147.45,310.63,154.12,299.34,154.12Zm-11.12-27.84h21.67c-.17-6-4.95-9.81-10.88-9.81C293.49,116.47,289.13,120,288.22,126.28Z" transform="translate(-24.05 -95.88)"/><path class="cls-1" d="M348.11,107c7.33,0,12.35,3.46,15.07,7.25v-6.51H374.8v45.64H363.18v-6.67c-2.72,3.95-7.91,7.41-15.16,7.41-11.53,0-20.76-9.47-20.76-23.72S336.49,107,348.11,107Zm3,10.13c-6.18,0-12,4.62-12,13.27s5.85,13.59,12,13.59c6.35,0,12.11-4.78,12.11-13.43S357.42,117.13,351.07,117.13Z" transform="translate(-24.05 -95.88)"/><path class="cls-1" d="M418,128.17c0-7.33-4-11.28-10.13-11.28-6.26,0-10.3,4-10.3,11.28v25.21H386.08V107.74h11.53v5.69a17,17,0,0,1,13.76-6.35c10.63,0,18.21,6.92,18.21,19.53v26.77H418Z" transform="translate(-24.05 -95.88)"/><path class="cls-1" d="M458,154.12c-11.46,0-19.45-6.67-19.94-15.16h11.62c.41,3.46,3.62,6.1,8.23,6.1s7-2.06,7-4.7c0-8.15-25.79-3-25.79-19.68,0-7.58,6.76-13.68,18-13.68,11,0,17.71,6,18.37,15.08h-11c-.33-3.55-3.13-5.94-7.66-5.94-4.28,0-6.51,1.73-6.51,4.37,0,8.32,25.3,3.13,25.62,19.85C476,148.19,469.12,154.12,458,154.12Z" transform="translate(-24.05 -95.88)"/><path class="cls-1" d="M180.25,97.21c-4.67,1-7.42,6.82-6.14,13.11s6.1,10.62,10.77,9.67,7.42-6.82,6.14-13.11S184.92,96.26,180.25,97.21Zm5.6,15.39a10.27,10.27,0,0,1-.26,2.84,12,12,0,0,1-.4,1.33,8.55,8.55,0,0,1-.58,1.27.15.15,0,0,1-.2,0,.16.16,0,0,1-.08-.13h0a23,23,0,0,0-.32-5.12,7.35,7.35,0,0,0-.79-2.14,5.26,5.26,0,0,0-.63-.84c-.12-.12-.25-.23-.38-.34l-.48-.36a5.45,5.45,0,0,1-1.17-1.13,7,7,0,0,1-.45-.66,7.77,7.77,0,0,1-.35-.71,8.09,8.09,0,0,1-.58-2.93,11.42,11.42,0,0,1,.31-2.81,11.83,11.83,0,0,1,.4-1.32,8.4,8.4,0,0,1,.55-1.27.15.15,0,0,1,.2-.06.16.16,0,0,1,.08.14h0c0,.89-.06,1.78,0,2.64a16.93,16.93,0,0,0,.26,2.51,8,8,0,0,0,.72,2.21,4.2,4.2,0,0,0,1.36,1.58l.27.19a3.92,3.92,0,0,1,.32.25,6.28,6.28,0,0,1,.59.56,5.61,5.61,0,0,1,.91,1.33,6.74,6.74,0,0,1,.53,1.46A8.24,8.24,0,0,1,185.85,112.6Z" transform="translate(-24.05 -95.88)"/><path class="cls-1" d="M204.49,111.12c-8-3.31-18.15,2.77-22.61,13.58s-1.56,22.26,6.47,25.57S206.5,147.5,211,136.69,212.52,114.43,204.49,111.12Zm-7.16,29a19.64,19.64,0,0,1-5.25,5.63,15.15,15.15,0,0,1-2.15,1.33.27.27,0,0,1-.37-.13.31.31,0,0,1,0-.28h0a40.87,40.87,0,0,0,4.71-8.07,13,13,0,0,0,1-4,8.08,8.08,0,0,0-.1-1.91,7.09,7.09,0,0,0-.22-.91l-.36-1a9.71,9.71,0,0,1-.62-2.9,10.31,10.31,0,0,1,0-1.47,13.66,13.66,0,0,1,.2-1.43,14.57,14.57,0,0,1,2.08-5,21.11,21.11,0,0,1,3.33-3.93,20,20,0,0,1,1.95-1.6,16.63,16.63,0,0,1,2.12-1.36.27.27,0,0,1,.37.12.26.26,0,0,1,0,.28h0c-1,1.31-1.89,2.63-2.72,4a30.58,30.58,0,0,0-2.17,4,14.25,14.25,0,0,0-1.15,4.08,7.86,7.86,0,0,0,.45,3.76l.21.57c.08.24.18.46.24.7a9.29,9.29,0,0,1,.32,1.46,10.66,10.66,0,0,1,0,2.93,12.93,12.93,0,0,1-.68,2.74A15.32,15.32,0,0,1,197.33,140.09Z" transform="translate(-24.05 -95.88)"/></g></svg>